<svg width="128" height="128" viewBox="0 0 128 128" fill="none" xmlns="http://www.w3.org/2000/svg">
  <rect width="128" height="128" rx="24" fill="#FFF3E0"/>
  <circle cx="40" cy="48" r="14" fill="#FF8A65"/>
  <circle cx="68" cy="44" r="12" fill="#FFB74D"/>
  <circle cx="88" cy="48" r="14" fill="#4FC3F7"/>
  <path d="M20 96C20 78 30 66 40 66C50 66 60 78 60 96" fill="#FFCCBC"/>
  <path d="M54 96C54 80 62 70 68 70C74 70 82 80 82 96" fill="#FFE0B2"/>
  <path d="M70 96C70 78 78 66 88 66C98 66 108 78 108 96" fill="#B3E5FC"/>
  <path d="M60 64C64 58 72 58 76 64" stroke="#FF6F61" stroke-width="4" stroke-linecap="round"/>
  <circle cx="64" cy="72" r="6" fill="#FF6F61"/>
</svg>
